<svg xmlns="http://www.w3.org/2000/svg" viewBox="0 0 354.36 443.17"><defs><style>.cls-1{fill:#400404;}</style></defs><g id="Layer_2" data-name="Layer 2"><g id="Layer_1-2" data-name="Layer 1"><path class="cls-1" d="M354.36,0c-34.95,26.36-63.55,83.74-63.55,127.52V220.2c0,26.53,4.4,54.39-3.43,80.24-6.63,21.86-21,40.72-38.94,54.6-22.9,17.68-52.24,26.73-81.13,24.09C112.17,374.08,68.08,329.23,63.89,274A114.62,114.62,0,0,1,178,150.64h.41l-22.86,55.93a87.67,87.67,0,0,0,26.93,102.07h0l57.21-139.93L264,109.27a178.08,178.08,0,0,0-86-22.16c-99.6,0-180.38,82.21-178,182.34C2.26,362.06,76.4,438.29,168.91,442.94a177.19,177.19,0,0,0,121.9-40.15q2.24-1.83,4.42-3.74c38.16-33.45,59.13-82.41,59.13-133.16V0Z"/></g></g></svg>