<svg xmlns="http://www.w3.org/2000/svg" viewBox="0 0 1277.33 443.17">
    <defs><style>.cls-1{fill:#ffffff;}.cls-2{fill:#400404;}</style></defs><g id="Layer_2" data-name="Layer 2"><g id="Layer_1-2" data-name="Layer 1">
    <path class="cls-1" d="M508.78,297.24c13.14,0,24.36-5.13,30.77-12.18L578,307.18c-15.71,21.79-39.43,33-69.88,33-54.82,0-88.8-36.86-88.8-84.63s34.62-84.63,85.27-84.63c46.8,0,81.43,36.23,81.43,84.63a92.64,92.64,0,0,1-1.93,19.24H470.31C476.4,291.47,491.15,297.24,508.78,297.24Zm29.49-58.35c-5.13-18.59-19.55-25.32-34-25.32-18.27,0-30.45,9-34.94,25.32Z"/>
    <path class="cls-1" d="M765.55,111.31v224.4H717.47V320.64c-10.58,12.18-26.29,19.55-47.77,19.55-42,0-76.62-36.86-76.62-84.63s34.63-84.63,76.62-84.63c21.48,0,37.19,7.38,47.77,19.56V111.31ZM717.47,255.56c0-24-16-39.11-38.15-39.11s-38.15,15.07-38.15,39.11,16,39.11,38.15,39.11S717.47,279.61,717.47,255.56Z"/>
    <path class="cls-1" d="M780.61,255.56c0-47.76,37.83-84.63,84.95-84.63s85,36.87,85,84.63-37.82,84.63-85,84.63S780.61,303.33,780.61,255.56Zm121.82,0c0-22.76-16-37.82-36.87-37.82S828.7,232.8,828.7,255.56s16,37.83,36.86,37.83S902.43,278.32,902.43,255.56Z"/>
    <path class="cls-1" d="M956.73,255.56c0-47.76,36.22-84.63,85-84.63,31.1,0,58.66,16.35,72.45,41l-42,24.36c-5.45-11.22-17-18-31.09-18-20.84,0-36.23,15.06-36.23,37.18s15.39,37.19,36.23,37.19c14.1,0,26-6.73,31.09-17.95l42,24c-13.79,25-41,41.35-72.45,41.35C993,340.19,956.73,303.33,956.73,255.56Z"/>
    <path class="cls-1" d="M1277.33,237.29v98.42h-48.09V244.34c0-19.87-12.5-29.17-27.89-29.17-17.63,0-29.81,10.26-29.81,33v87.52h-48.09V111.31h48.09v79.18c8.65-11.86,24.68-19.56,45.84-19.56C1249.76,170.93,1277.33,194,1277.33,237.29Z"/><path class="cls-2" d="M354.36,0c-34.95,26.36-63.55,83.74-63.55,127.52V220.2c0,26.53,4.4,54.39-3.43,80.24-6.63,21.86-21,40.72-38.94,54.6-22.9,17.68-52.24,26.73-81.13,24.09C112.17,374.08,68.08,329.23,63.89,274A114.62,114.62,0,0,1,178,150.64h.41l-22.86,55.93a87.67,87.67,0,0,0,26.93,102.07h0l57.21-139.93L264,109.27a178.08,178.08,0,0,0-86-22.16c-99.6,0-180.38,82.21-178,182.34C2.26,362.06,76.4,438.29,168.91,442.94a177.19,177.19,0,0,0,121.9-40.15q2.24-1.83,4.42-3.74c38.16-33.45,59.13-82.41,59.13-133.16V0Z"/></g></g>
</svg>